HIERARCHY
ROOT HipCenter
{
    OFFSET 0.0 0.0 -0.0
    CHANNELS 6 Xposition Yposition Zposition Zrotation Xrotation Yrotation
    JOINT Spine
    {
        OFFSET 0.0 30.68348503112793 0.0
        CHANNELS 3 Zrotation Xrotation Yrotation
        JOINT ShoulderCenter
        {
            OFFSET 0.0 22.617107391357422 0.0
            CHANNELS 3 Zrotation Xrotation Yrotation
            JOINT LeftShoulder
            {
                OFFSET 17.170751571655273 0.0 0.0
                CHANNELS 3 Zrotation Xrotation Yrotation
                JOINT LeftElbow
                {
                    OFFSET 23.885208129882812 0.0 0.0
                    CHANNELS 3 Zrotation Xrotation Yrotation
                    JOINT LeftWrist
                    {
                        OFFSET 21.703947067260742 0.0 0.0
                        CHANNELS 3 Zrotation Xrotation Yrotation
                        JOINT LeftHand
                        {
                            OFFSET 6.187966346740723 0.0 0.0
                            CHANNELS 3 Zrotation Xrotation Yrotation
                            End Site
                            {
                                OFFSET 2.475186586380005 0.0 0.0
                            }
                        }
                    }
                }
            }
            JOINT RightShoulder
            {
                OFFSET -17.170751571655273 0.0 0.0
                CHANNELS 3 Zrotation Xrotation Yrotation
                JOINT RightElbow
                {
                    OFFSET -23.885208129882812 0.0 0.0
                    CHANNELS 3 Zrotation Xrotation Yrotation
                    JOINT RightWrist
                    {
                        OFFSET -21.703947067260742 0.0 0.0
                        CHANNELS 3 Zrotation Xrotation Yrotation
                        JOINT RightHand
                        {
                            OFFSET -6.187966346740723 0.0 0.0
                            CHANNELS 3 Zrotation Xrotation Yrotation
                            End Site
                            {
                                OFFSET -2.475186586380005 0.0 0.0
                            }
                        }
                    }
                }
            }
            End Site
            {
                OFFSET 0.0 9.046843528747559 0.0
            }
        }
    }
    JOINT LeftHip
    {
        OFFSET 7.2617034912109375 0.0 0.0
        CHANNELS 3 Zrotation Xrotation Yrotation
        JOINT LeftKnee
        {
            OFFSET 0.0 -31.834144592285156 0.0
            CHANNELS 3 Zrotation Xrotation Yrotation
            JOINT LeftAnkle
            {
                OFFSET 0.0 -31.83716583251953 0.0
                CHANNELS 3 Zrotation Xrotation Yrotation
                JOINT LeftFoot
                {
                    OFFSET 0.0 -9.606727600097656 0.0
                    CHANNELS 3 Zrotation Xrotation Yrotation
                    End Site
                    {
                        OFFSET 0.0 0.0 3.842690944671631
                    }
                }
            }
        }
    }
    JOINT RightHip
    {
        OFFSET -7.2617034912109375 0.0 0.0
        CHANNELS 3 Zrotation Xrotation Yrotation
        JOINT RightKnee
        {
            OFFSET 0.0 -31.834144592285156 0.0
            CHANNELS 3 Zrotation Xrotation Yrotation
            JOINT RightAnkle
            {
                OFFSET 0.0 -31.83716583251953 0.0
                CHANNELS 3 Zrotation Xrotation Yrotation
                JOINT RightFoot
                {
                    OFFSET 0.0 -9.606727600097656 0.0
                    CHANNELS 3 Zrotation Xrotation Yrotation
                    End Site
                    {
                        OFFSET 0.0 0.0 3.842690944671631
                    }
                }
            }
        }
    }
}
MOTION
Frames: 6
Frame Time: 0.03333333333333333
-5.332700252532959 -8.277400016784668 -275.789306640625 5.739779999625249 8.958612356293798 -135.68489680928997 -0.850669419164678 -1.352302455657462 -0.2878880461303371 -4.957201676639928e-07 6.483914699069733e-07 -5.121882545047974 -33.38653574819577 -16.07825564787739 47.08015944830246 -3.7348305802024807e-07 -4.2951373579519884e-06 64.54489019522737 3.672261918244277e-06 49.64522814279566 29.530517758304594 0.0 0.0 3.1805546814635164e-15 3.5654073656852563 -62.260949127481524 -101.00736064408848 1.9520955456690016e-06 -2.7399912752195105e-06 -69.45990393579952 179.999976182638 -83.33551740820475 126.00138384821993 0.0 0.0 7.951386703658791e-16 15.403584956795159 -3.9623872543128904 15.03848316053032 -3.310483949689444 -9.059640043388091 -0.2107966645890416 2.500979958469478 63.91812730384154 -1.0591791031858127 0.0 0.0 1.5902773407317582e-15 -0.4073301039518513 7.157464526099104 -28.458374498853576 -1.7455365782785612 4.688654867991091 1.1002309394604002 4.427170201523013 48.820462797814564 6.607613372848166 2.385416011097637e-15 -6.361109362927033e-15 -1.590277340731758e-15
-6.064499855041504 -9.13539981842041 -275.8922119140625 5.762681410288595 9.299874224892308 -140.35241689503866 -1.6565132863929424 -1.1557756812147266 -0.24514024228694092 -2.56908175746278e-07 7.395563283718744e-07 -8.779796470713139 -27.471659292280357 -26.973586453083026 58.12495658507861 9.463226666455836e-07 -2.0582140751815e-06 67.7588153432904 -4.9468244536408226e-08 13.890979016483012 27.660905278293257 0.0 0.0 0.0 18.388495048875043 -60.50450223850119 -98.76107181935463 -3.491370760654912e-06 2.267178102432387e-06 -43.91428360483765 -179.9999832593366 -76.42278083139853 114.88272170760807 0.0 0.0 -3.3793393490549868e-15 15.24627762508283 -0.878490765560148 15.805113575555307 -2.6667586664911402 -10.865287733239937 0.07740151008544453 -4.613008018043206 64.54432651294168 3.802337318334568 -5.29668755766019e-31 -6.3611093629270335e-15 -9.54166404439055e-15 -1.137244280236098 6.2874174220112 -28.415770121524144 -1.7716274647988464 5.0527243788665235 1.0971445139768439 -11.148978142470275 49.22167192717952 18.1177097854356 -2.3854160110976376e-15 -3.310429723537619e-32 1.5902773407317584e-15
-7.158499717712402 -9.76550006866455 -276.0346984863281 5.352926440479907 9.903394006014604 -144.66792529084523 -1.4693257313093864 -1.2710879013193834 -0.2405810856759993 -1.0517369528919454e-06 -9.16400619052072e-07 -8.978992960488384 -25.56286210748775 -39.87864927219479 64.76296600587669 -6.999776320160024e-07 8.211824737411098e-07 75.40086949526525 -1.0468139843812777e-06 33.16736090852122 33.208205496339865 -2.2069531490250793e-32 7.951386703658792e-16 3.1805546814635168e-15 140.6677084479141 40.66078828945612 -41.36899896405414 -1.0953656451725945e-06 -1.4024795749084356e-06 -31.746432190721134 -2.5639436706960425e-06 -5.573717473242963 -29.36401910725541 -1.9878466759146977e-16 6.361109362927033e-15 1.1034765745125397e-32 14.36680602236755 2.96740429245459 17.049149957258468 -1.786405226130187 -13.227815156279672 0.39560859445630786 -22.08013052441232 64.55331660627684 18.560730551432243 3.1805546814635168e-15 8.827812596100317e-32 3.1805546814635168e-15 -2.1536423376167777 4.903915234846716 -29.14522881498484 -1.1833488487557016 5.816508090081967 0.9989588583242538 -30.90730447195487 43.82697777787986 30.707421769570317 7.95138670365879e-16 -6.361109362927033e-15 -1.5902773407317582e-15
-7.66540002822876 -9.766600608825684 -276.3941955566406 5.721703389327936 10.471696454066358 -140.6476520241815 -1.550772668666094 -1.3156896557227589 -0.2617252108603539 1.8651774125869553e-07 -6.108685058747138e-07 4.150204452467211 -32.915394332871074 -38.455572168216435 48.55242945630762 3.7424189201219642e-06 -7.667255223336032e-07 68.5371595999775 -4.0072168830051664e-07 5.91384715670198 35.099218400623116 0.0 0.0 -1.5902773407317582e-15 148.22104259184596 29.360072283938813 -35.3168801843489 1.7372688449915312e-06 1.6646281580712507e-06 -47.01245270239632 179.99999883768967 67.08764838154657 97.3163287751511 -6.361109362927033e-15 1.5902773407317582e-15 8.827812596100317e-32 15.588736927430903 2.027346569092573 15.84355779081739 -2.781036593262059 -12.47556472970016 0.23141619300650584 -13.490042422909712 64.63887334639428 11.27721623459535 0.0 0.0 -1.590277340731758e-15 -1.6420080596788176 3.7312247036513355 -31.820144388345227 -0.5144603740779018 6.97929856776506 0.9208967310464267 -39.901774432400096 40.86896822193725 35.417098689535514 0.0 0.0 0.0
-8.327499389648438 -9.167200088500977 -276.53912353515625 6.2063208453724545 11.360082315550082 -127.52832765915254 -1.9310375716791803 -1.0864367645522137 -0.15264271838073626 -1.1888152349836576e-06 2.235239063023978e-07 3.415419066141507 -44.862413030807296 -33.201321488989926 33.44357002595574 4.6691231571425895e-06 -2.1101046800846207e-06 69.35339724337607 -5.83967358746873e-07 -4.07405531368493 34.97016211274877 1.5902773407317584e-15 1.1034765745125397e-32 7.951386703658792e-16 147.1317840372968 24.44530421229644 -24.759455693887407 -1.0111252702590931e-06 -3.848644342294661e-07 -47.570190167412335 -179.9999990728532 44.510529216396954 117.74914699251212 8.827812596100317e-32 3.1805546814635168e-15 -3.1805546814635168e-15 16.21809896739085 -2.452635670931635 9.01838615069842 -3.4566561724981932 -10.603814130844693 0.258028642709806 1.5155718701837084 66.01987641654009 -2.644175389233678 3.180554681463516e-15 6.3611093629270335e-15 9.54166404439055e-15 0.007893023320849374 2.7785562148211578 -22.790265414517624 2.888496586326111 8.775319435636904 -1.2708151487704304 -27.529343690498706 41.14226256568957 13.01232769899978 -1.5902773407317588e-15 0.0 0.0
-8.99690055847168 -9.64169979095459 -276.10980224609375 6.340765767781056 11.498112356459204 -125.65412388234395 -1.7158082566048047 -1.1276600951892342 -0.19398926122486124 -8.808652598291346e-07 -3.2917066398078305e-07 1.4996945972891838 -56.988893699769 -33.60603144112885 31.29085165607587 -4.2059500673325057e-07 1.6960716569467233e-06 65.1305379296161 -7.833284546236946e-07 -2.1426419916669905 53.38966503183067 1.7655625192200634e-31 6.3611093629270335e-15 -3.1805546814635168e-15 -77.24052603853293 33.5671022453311 -137.12969449390357 1.341876027739825e-06 1.1070331842140707e-06 -12.720652827379114 -1.1036759458511572e-06 -26.224785588997516 -39.21025643814503 0.0 0.0 0.0 14.484788925818986 -3.9065233615410104 10.469187483560416 -1.5388020341420632 -9.774219598163654 0.11521248081641398 -1.4399629072249431 65.49753843141866 0.7017027481207055 0.0 6.361109362927035e-15 0.0 -0.9100253319499921 2.3784106095831454 -26.44791516527281 4.747932048849725 6.760027248825768 -0.49777565241122224 -26.995278658371234 65.62073802745564 20.9539968993979 1.590277340731758e-15 4.4139062980501586e-32 3.180554681463516e-15
